<svg width="20" height="20" viewBox="0 0 20 20" fill="none" xmlns="http://www.w3.org/2000/svg">
<path fill-rule="evenodd" clip-rule="evenodd" d="M5.625 1.66699V4.58366C5.625 4.74942 5.69085 4.90839 5.80806 5.0256C5.92527 5.14281 6.08424 5.20866 6.25 5.20866C6.41576 5.20866 6.57473 5.14281 6.69194 5.0256C6.80915 4.90839 6.875 4.74942 6.875 4.58366V1.66699C6.875 1.50123 6.80915 1.34226 6.69194 1.22505C6.57473 1.10784 6.41576 1.04199 6.25 1.04199C6.08424 1.04199 5.92527 1.10784 5.80806 1.22505C5.69085 1.34226 5.625 1.50123 5.625 1.66699ZM13.125 1.66699V4.58366C13.125 4.74942 13.1908 4.90839 13.3081 5.0256C13.4253 5.14281 13.5842 5.20866 13.75 5.20866C13.9158 5.20866 14.0747 5.14281 14.1919 5.0256C14.3092 4.90839 14.375 4.74942 14.375 4.58366V1.66699C14.375 1.50123 14.3092 1.34226 14.1919 1.22505C14.0747 1.10784 13.9158 1.04199 13.75 1.04199C13.5842 1.04199 13.4253 1.10784 13.3081 1.22505C13.1908 1.34226 13.125 1.50123 13.125 1.66699Z" fill="#B1B1B1"/>
<path fill-rule="evenodd" clip-rule="evenodd" d="M18.9583 11.7575V8.75H1.04166V15.625C1.04166 16.4538 1.3709 17.2487 1.95695 17.8347C2.543 18.4208 3.33786 18.75 4.16666 18.75H11.4592C10.8119 18.2652 10.2865 17.6362 9.92469 16.913C9.56291 16.1897 9.3747 15.392 9.37499 14.5833C9.37587 13.2023 9.92489 11.878 10.9015 10.9015C11.878 9.9249 13.2023 9.37588 14.5833 9.375C16.4167 9.375 18.03 10.3242 18.9583 11.7575ZM7.70832 2.5V4.58333C7.70832 4.81046 7.65526 5.03445 7.55338 5.23745C7.45149 5.44044 7.30361 5.61684 7.12149 5.75257C6.93938 5.8883 6.72809 5.97962 6.50444 6.01925C6.2808 6.05888 6.05098 6.04573 5.83332 5.98083V2.5H4.16666C3.33786 2.5 2.543 2.82924 1.95695 3.41529C1.3709 4.00134 1.04166 4.7962 1.04166 5.625V7.5H18.9583V5.625C18.9583 4.7962 18.6291 4.00134 18.043 3.41529C17.457 2.82924 16.6621 2.5 15.8333 2.5H15.2083V4.58333C15.2083 4.81046 15.1553 5.03445 15.0534 5.23745C14.9515 5.44044 14.8036 5.61684 14.6215 5.75257C14.4394 5.8883 14.2281 5.97962 14.0044 6.01925C13.7808 6.05888 13.551 6.04573 13.3333 5.98083V2.5H7.70832Z" fill="#B1B1B1"/>
<path fill-rule="evenodd" clip-rule="evenodd" d="M14.5833 10.209C12.1683 10.209 10.2083 12.169 10.2083 14.584C10.2083 16.999 12.1683 18.959 14.5833 18.959C16.9983 18.959 18.9583 16.999 18.9583 14.584C18.9583 12.169 16.9983 10.209 14.5833 10.209ZM12.475 14.8173L13.725 16.0673C13.7829 16.1254 13.8518 16.1714 13.9276 16.2028C14.0034 16.2343 14.0846 16.2504 14.1666 16.2504C14.2487 16.2504 14.3299 16.2343 14.4057 16.2028C14.4815 16.1714 14.5503 16.1254 14.6083 16.0673L16.6916 13.984C16.7496 13.926 16.7957 13.8571 16.827 13.7813C16.8584 13.7056 16.8746 13.6243 16.8746 13.5423C16.8746 13.4603 16.8584 13.3791 16.827 13.3033C16.7957 13.2275 16.7496 13.1587 16.6916 13.1007C16.6336 13.0427 16.5648 12.9966 16.489 12.9653C16.4132 12.9339 16.332 12.9177 16.25 12.9177C16.168 12.9177 16.0867 12.9339 16.011 12.9653C15.9352 12.9966 15.8663 13.0427 15.8083 13.1007L14.1666 14.7415L13.3583 13.934C13.3003 13.876 13.2315 13.83 13.1557 13.7986C13.0799 13.7672 12.9987 13.751 12.9166 13.751C12.8346 13.751 12.7534 13.7672 12.6776 13.7986C12.6018 13.83 12.533 13.876 12.475 13.934C12.417 13.992 12.371 14.0608 12.3396 14.1366C12.3082 14.2124 12.292 14.2936 12.292 14.3757C12.292 14.4577 12.3082 14.5389 12.3396 14.6147C12.371 14.6905 12.417 14.7593 12.475 14.8173Z" fill="#B1B1B1"/>
</svg>
