<svg width="4" height="15" viewBox="0 0 4 15" fill="none" xmlns="http://www.w3.org/2000/svg">
<path d="M1.83375 3.6675C2.84231 3.6675 3.6675 2.84231 3.6675 1.83375C3.6675 0.825188 2.84231 0 1.83375 0C0.825188 0 0 0.825188 0 1.83375C0 2.84231 0.825188 3.6675 1.83375 3.6675ZM1.83375 5.50125C0.825188 5.50125 0 6.32644 0 7.335C0 8.34356 0.825188 9.16875 1.83375 9.16875C2.84231 9.16875 3.6675 8.34356 3.6675 7.335C3.6675 6.32644 2.84231 5.50125 1.83375 5.50125ZM1.83375 11.0025C0.825188 11.0025 0 11.8277 0 12.8363C0 13.8448 0.825188 14.67 1.83375 14.67C2.84231 14.67 3.6675 13.8448 3.6675 12.8363C3.6675 11.8277 2.84231 11.0025 1.83375 11.0025Z" fill="#6C6E70"/>
</svg>
