<svg width="14" height="18" viewBox="0 0 14 18" fill="none" xmlns="http://www.w3.org/2000/svg">
<path d="M11.4928 3.51443H11.4857C11.3571 2.62157 10.6 1.92871 9.67142 1.92871H9.09285C8.94364 1.49188 8.66177 1.11254 8.28658 0.843632C7.91138 0.574723 7.46159 0.429667 6.99999 0.428711C6.02856 0.428711 5.20713 1.05728 4.90713 1.92871H4.3357C3.40713 1.92871 2.64999 2.62157 2.52142 3.51443H2.50713C1.29285 3.51443 0.299988 4.50728 0.299988 5.72157V15.3644C0.299988 16.5787 1.29285 17.5716 2.50713 17.5716H11.4928C12.7071 17.5716 13.7 16.5787 13.7 15.3644V5.72157C13.7 4.50728 12.7071 3.51443 11.4928 3.51443ZM9.12856 14.0001H4.87142C4.50713 14.0001 4.24285 13.6573 4.3357 13.3073C4.48856 12.7169 4.83316 12.1941 5.31539 11.8208C5.79762 11.4475 6.39017 11.245 6.99999 11.245C7.60981 11.245 8.20236 11.4475 8.68459 11.8208C9.16682 12.1941 9.51142 12.7169 9.66427 13.3073C9.75713 13.6573 9.49284 14.0001 9.12856 14.0001ZM5.62142 9.15728C5.63294 8.79935 5.78323 8.45992 6.04051 8.2108C6.29778 7.96167 6.64186 7.82238 6.99999 7.82238C7.35811 7.82238 7.7022 7.96167 7.95947 8.2108C8.21674 8.45992 8.36704 8.79935 8.37856 9.15728C8.37856 9.91443 7.75713 10.5287 6.99999 10.5287C6.2357 10.5287 5.62142 9.91443 5.62142 9.15728ZM10.0786 4.51443C10.0786 4.73585 9.89285 4.92157 9.67142 4.92157H4.3357C4.11427 4.92157 3.92856 4.73585 3.92856 4.51443V3.76443C3.92856 3.53585 4.11427 3.35728 4.3357 3.35728H5.49999C5.89999 3.35728 6.21427 3.03585 6.21427 2.643C6.21427 2.20728 6.57142 1.85728 6.99999 1.85728C7.42856 1.85728 7.77856 2.20728 7.77856 2.643C7.77856 3.03585 8.09999 3.35728 8.49285 3.35728H9.67142C9.89285 3.35728 10.0786 3.53585 10.0786 3.76443V4.51443Z" fill="#B1B1B1"/>
</svg>
