<svg width="20" height="20" viewBox="0 0 20 20" fill="none" xmlns="http://www.w3.org/2000/svg">
<g clip-path="url(#clip0_432_1508)">
<path d="M19.5736 11.5618H18.8915V10.6975C18.8915 10.4799 18.7151 10.3035 18.4975 10.3035H18.2645C18.2922 9.96303 18.0726 9.6419 17.7305 9.55397L15.4797 8.97545L16.2047 7.07659C16.4146 6.52674 16.1394 5.91049 15.5891 5.70037L13.9293 5.05819C13.6112 4.9351 13.2695 4.90366 12.934 4.96522C11.617 5.20682 9.45242 5.60397 9.20235 5.64967C9.03702 5.6799 8.88763 5.76741 8.78039 5.89682L7.30699 7.67506V2.31912C7.307 2.21724 7.27396 2.11811 7.21284 2.0366C7.15172 1.95508 7.06581 1.89559 6.96801 1.86705L3.79848 0.942054H12.0163V4.41959L12.9582 4.29655V0.471117C12.9582 0.211039 12.7473 0.000179213 12.4873 0.000179213C12.4205 0.000179213 0.501642 -0.000875475 0.465236 0.00213234C0.215861 0.0226792 0.0328533 0.232289 0.0328533 0.471117C0.0328533 0.586664 0.0306268 17.6895 0.0369158 17.7397C0.0608611 17.93 0.196877 18.0817 0.371877 18.1328L6.70418 19.9808C7.00586 20.069 7.30703 19.8417 7.30703 19.5287V9.77541C7.41979 9.73172 7.51951 9.65993 7.59672 9.56686L9.71559 7.00955L12.078 6.57748L10.4857 10.7479C10.4857 10.7479 10.5425 10.6044 9.48133 14.2369L8.24641 16.5842V18.8082C8.60988 18.8969 8.99918 18.731 9.18035 18.3865L10.9943 14.9384C11.0202 14.8892 11.0411 14.8375 11.0567 14.7842L12.0602 11.3491L12.2863 11.4354L14.0344 14.181L12.7778 17.7202C12.6239 18.1536 12.8505 18.6298 13.284 18.7837C13.7151 18.9368 14.1933 18.7118 14.3475 18.2775L15.7401 14.3552C15.7825 14.2359 15.797 14.1085 15.7828 13.9827C15.7685 13.8569 15.7258 13.736 15.6578 13.6292L14.4357 11.7098L14.9663 10.3201L16.0916 10.6093L16.0813 11.5619H15.3992C15.3106 11.5619 15.2291 11.5915 15.1633 11.6409L16.2068 13.2797C16.4539 13.6679 16.5074 14.1393 16.3534 14.573L16.1801 15.0612H19.5737C19.7912 15.0612 19.9675 14.8848 19.9675 14.6673V11.9558C19.9675 11.7382 19.7912 11.5618 19.5736 11.5618ZM5.96477 12.3817C5.96477 12.6417 5.75391 12.8526 5.49383 12.8526C5.23375 12.8526 5.02289 12.6417 5.02289 12.3817V9.66307C5.02289 9.40299 5.23375 9.19213 5.49383 9.19213C5.75391 9.19213 5.96477 9.40299 5.96477 9.66307V12.3817ZM18.1036 11.5618H16.8693V11.0915H18.1036V11.5618Z" fill="#B1B1B1"/>
<path d="M12.3361 12.7256L12.0163 13.8205V17.2102H10.5347L10.0392 18.1521H12.0863C12.0636 17.9353 12.0894 17.7144 12.1646 17.5028L12.9582 15.2675V13.7027L12.3361 12.7256ZM16.2857 1.97826C15.4714 1.66737 14.5593 2.07541 14.2484 2.88967C13.9348 3.71096 14.3539 4.61924 15.1598 4.92694C15.9667 5.23506 16.8839 4.83584 17.1971 4.01553C17.508 3.20127 17.1 2.28916 16.2857 1.97826Z" fill="#B1B1B1"/>
</g>
<defs>
<clipPath id="clip0_432_1508">
<rect width="20" height="20" fill="white"/>
</clipPath>
</defs>
</svg>
