<svg width="19" height="19" viewBox="0 0 19 19" fill="none" xmlns="http://www.w3.org/2000/svg">
<g clip-path="url(#clip0_432_1521)">
<path d="M6.94688 15.4375H9.71969C9.61597 16.1283 9.3358 16.7807 8.90625 17.3316V18.1094C8.90602 18.188 8.87466 18.2634 8.81904 18.319C8.76341 18.3747 8.68804 18.406 8.60938 18.4062H1.78125C1.73233 18.4061 1.6842 18.3939 1.64119 18.3705C1.59819 18.3472 1.56164 18.3136 1.53485 18.2727C1.09032 17.5021 0.867376 16.6237 0.890627 15.7344V11.967C0.890125 11.6164 0.958836 11.2691 1.09282 10.9451C1.2268 10.6211 1.42342 10.3268 1.67141 10.0789L3.85938 7.89094V11.1684L2.75797 12.2817C2.70246 12.3376 2.67143 12.4133 2.67171 12.4921C2.67199 12.5708 2.70355 12.6463 2.75945 12.7018C2.81536 12.7573 2.89102 12.7883 2.9698 12.7881C3.04858 12.7878 3.12402 12.7562 3.17953 12.7003L5.77719 10.0759C5.86419 9.98709 5.96814 9.91662 6.08288 9.86868C6.19762 9.82075 6.32081 9.79633 6.44516 9.79688H6.44813C6.5717 9.79677 6.69408 9.82111 6.80821 9.86849C6.92234 9.91587 7.02597 9.98537 7.11313 10.073L7.13688 10.0967C7.22817 10.1879 7.3006 10.2962 7.35001 10.4154C7.39942 10.5346 7.42485 10.6624 7.42484 10.7914C7.42279 11.0481 7.31927 11.2936 7.13688 11.4742C6.09781 12.5044 4.53922 14.06 4.53922 14.06C4.49991 14.103 4.47394 14.1564 4.46445 14.2139C4.45496 14.2713 4.46237 14.3303 4.48578 14.3836C4.51053 14.4385 4.55059 14.485 4.60114 14.5177C4.6517 14.5503 4.7106 14.5677 4.77078 14.5677C5.23754 14.5681 5.68505 14.7538 6.0151 15.0838C6.34515 15.4139 6.53078 15.8614 6.53125 16.3281C6.53125 16.4069 6.56253 16.4824 6.6182 16.538C6.67388 16.5937 6.74939 16.625 6.82813 16.625C6.90686 16.625 6.98237 16.5937 7.03805 16.538C7.09372 16.4824 7.125 16.4069 7.125 16.3281C7.1259 16.0223 7.06533 15.7194 6.94688 15.4375ZM9.5 4.15625C9.36577 4.15594 9.23318 4.18582 9.11206 4.24369C8.99094 4.30156 8.88438 4.38593 8.80028 4.49055C8.71618 4.59518 8.65669 4.71738 8.62622 4.84811C8.59574 4.97884 8.59506 5.11475 8.62422 5.24578L9.25063 8.11062C9.26283 8.1677 9.29426 8.21887 9.33964 8.25557C9.38503 8.29228 9.44163 8.3123 9.5 8.3123C9.55837 8.3123 9.61497 8.29228 9.66036 8.25557C9.70575 8.21887 9.73717 8.1677 9.74938 8.11062L10.3758 5.24578C10.4049 5.11475 10.4043 4.97884 10.3738 4.84811C10.3433 4.71738 10.2838 4.59518 10.1997 4.49055C10.1156 4.38593 10.0091 4.30156 9.88794 4.24369C9.76682 4.18582 9.63424 4.15594 9.5 4.15625ZM14.5469 2.07812V13.3594C14.5467 13.753 14.3903 14.1305 14.1119 14.4088C13.8336 14.6872 13.4561 14.8436 13.0625 14.8438H6.59359C6.28091 14.4626 5.85773 14.1877 5.38234 14.057C5.91969 13.5227 6.85485 12.5905 7.55547 11.8958C7.70221 11.7505 7.81869 11.5776 7.89819 11.387C7.97769 11.1964 8.01862 10.992 8.01862 10.7855C8.01862 10.579 7.97769 10.3745 7.89819 10.1839C7.81869 9.99337 7.70221 9.82044 7.55547 9.67516L7.53172 9.65141C7.38963 9.50887 7.22072 9.39587 7.03474 9.31893C6.84876 9.24199 6.64939 9.20263 6.44813 9.20312H6.44219C6.24005 9.20331 6.03995 9.24355 5.85346 9.32151C5.66696 9.39947 5.49776 9.51361 5.35563 9.65734L4.45313 10.5687V2.07812C4.45328 1.68449 4.60972 1.30703 4.88806 1.02869C5.1664 0.750347 5.54387 0.593907 5.9375 0.59375H13.0625C13.4561 0.593907 13.8336 0.750347 14.1119 1.02869C14.3903 1.30703 14.5467 1.68449 14.5469 2.07812ZM10.6875 10.6875C10.6875 10.4526 10.6179 10.223 10.4874 10.0278C10.3569 9.83248 10.1714 9.68027 9.95444 9.59039C9.73745 9.50051 9.49868 9.477 9.26833 9.52282C9.03798 9.56864 8.82639 9.68174 8.66031 9.84781C8.49424 10.0139 8.38114 10.2255 8.33532 10.4558C8.2895 10.6862 8.31301 10.9249 8.40289 11.1419C8.49277 11.3589 8.64498 11.5444 8.84026 11.6749C9.03554 11.8054 9.26514 11.875 9.5 11.875C9.65596 11.875 9.81039 11.8443 9.95448 11.7847C10.0986 11.725 10.2295 11.6376 10.3398 11.5273C10.4501 11.417 10.5375 11.2861 10.5972 11.142C10.6568 10.9979 10.6875 10.8435 10.6875 10.6875ZM10.6608 4.11766C10.4496 3.8563 10.1565 3.67386 9.82872 3.59987C9.50098 3.52588 9.15786 3.56467 8.85491 3.70997C8.55196 3.85526 8.30691 4.09855 8.15944 4.40044C8.01197 4.70234 7.97071 5.04517 8.04234 5.37344L8.66875 8.23828C8.71044 8.4277 8.81557 8.59721 8.96674 8.71873C9.11791 8.84025 9.30604 8.90649 9.5 8.90649C9.69396 8.90649 9.8821 8.84025 10.0333 8.71873C10.1844 8.59721 10.2896 8.4277 10.3313 8.23828L10.9577 5.37344C11.0058 5.15527 11.0041 4.92905 10.9527 4.71162C10.9013 4.4942 10.8015 4.29117 10.6608 4.11766ZM9.5 10.0938C9.38257 10.0938 9.26777 10.1286 9.17013 10.1938C9.07249 10.2591 8.99639 10.3518 8.95145 10.4603C8.90651 10.5688 8.89475 10.6882 8.91766 10.8033C8.94057 10.9185 8.99712 11.0243 9.08016 11.1073C9.16319 11.1904 9.26899 11.2469 9.38417 11.2698C9.49934 11.2928 9.61872 11.281 9.72722 11.2361C9.83571 11.1911 9.92844 11.115 9.99369 11.0174C10.0589 10.9197 10.0938 10.8049 10.0938 10.6875C10.0933 10.5302 10.0306 10.3794 9.91933 10.2682C9.80808 10.1569 9.65733 10.0942 9.5 10.0938ZM1.1875 5.04688H2.96875C3.04749 5.04688 3.123 5.0156 3.17867 4.95992C3.23435 4.90425 3.26563 4.82874 3.26563 4.75C3.26563 4.67126 3.23435 4.59575 3.17867 4.54008C3.123 4.4844 3.04749 4.45312 2.96875 4.45312H1.1875C1.10877 4.45312 1.03325 4.4844 0.977579 4.54008C0.921904 4.59575 0.890627 4.67126 0.890627 4.75C0.890627 4.82874 0.921904 4.90425 0.977579 4.95992C1.03325 5.0156 1.10877 5.04688 1.1875 5.04688ZM2.81586 5.97995L1.33149 6.87058C1.29732 6.89028 1.26742 6.91659 1.24354 6.94797C1.21966 6.97935 1.20227 7.01518 1.19238 7.05336C1.1825 7.09154 1.18032 7.1313 1.18598 7.17033C1.19163 7.20936 1.20501 7.24687 1.22532 7.28068C1.24563 7.31448 1.27248 7.3439 1.30429 7.36721C1.33609 7.39052 1.37223 7.40726 1.41058 7.41646C1.44893 7.42565 1.48873 7.42711 1.52765 7.42075C1.56657 7.41439 1.60384 7.40034 1.63727 7.37942L3.12164 6.4888C3.15581 6.4691 3.1857 6.44279 3.20959 6.41141C3.23347 6.38002 3.25086 6.3442 3.26075 6.30602C3.27063 6.26784 3.27281 6.22807 3.26715 6.18904C3.2615 6.15001 3.24812 6.1125 3.22781 6.0787C3.2075 6.0449 3.18065 6.01548 3.14884 5.99217C3.11703 5.96885 3.0809 5.95211 3.04255 5.94292C3.0042 5.93372 2.9644 5.93226 2.92548 5.93862C2.88656 5.94498 2.84929 5.95903 2.81586 5.97995ZM1.33149 2.62942L2.81586 3.52005C2.84929 3.54097 2.88656 3.55502 2.92548 3.56138C2.9644 3.56774 3.0042 3.56628 3.04255 3.55708C3.0809 3.54789 3.11703 3.53115 3.14884 3.50784C3.18065 3.48452 3.2075 3.4551 3.22781 3.4213C3.24812 3.3875 3.2615 3.34999 3.26715 3.31096C3.27281 3.27193 3.27063 3.23216 3.26075 3.19398C3.25086 3.1558 3.23347 3.11998 3.20959 3.08859C3.1857 3.05721 3.15581 3.0309 3.12164 3.0112L1.63727 2.12058C1.56986 2.08171 1.48989 2.07086 1.41457 2.09036C1.33924 2.10986 1.27459 2.15815 1.23451 2.22485C1.19443 2.29154 1.18214 2.3713 1.20027 2.44696C1.21841 2.52263 1.26553 2.58815 1.33149 2.62942ZM17.8125 4.45312H16.0312C15.9525 4.45312 15.877 4.4844 15.8213 4.54008C15.7657 4.59575 15.7344 4.67126 15.7344 4.75C15.7344 4.82874 15.7657 4.90425 15.8213 4.95992C15.877 5.0156 15.9525 5.04688 16.0312 5.04688H17.8125C17.8912 5.04688 17.9667 5.0156 18.0224 4.95992C18.0781 4.90425 18.1094 4.82874 18.1094 4.75C18.1094 4.67126 18.0781 4.59575 18.0224 4.54008C17.9667 4.4844 17.8912 4.45312 17.8125 4.45312ZM17.6685 6.87058L16.1841 5.97995C16.1507 5.95903 16.1134 5.94498 16.0745 5.93862C16.0356 5.93226 15.9958 5.93372 15.9575 5.94292C15.9191 5.95211 15.883 5.96885 15.8512 5.99217C15.8194 6.01548 15.7925 6.0449 15.7722 6.0787C15.7519 6.1125 15.7385 6.15001 15.7328 6.18904C15.7272 6.22807 15.7294 6.26784 15.7393 6.30602C15.7491 6.3442 15.7665 6.38002 15.7904 6.41141C15.8143 6.44279 15.8442 6.4691 15.8784 6.4888L17.3627 7.37942C17.4301 7.41829 17.5101 7.42914 17.5854 7.40964C17.6608 7.39014 17.7254 7.34185 17.7655 7.27515C17.8056 7.20846 17.8179 7.1287 17.7997 7.05304C17.7816 6.97737 17.7345 6.91185 17.6685 6.87058ZM16.0312 3.5625C16.085 3.5625 16.1378 3.54783 16.1838 3.52005L17.6682 2.62942C17.7024 2.60972 17.7323 2.58341 17.7562 2.55203C17.78 2.52065 17.7974 2.48482 17.8073 2.44664C17.8172 2.40846 17.8194 2.3687 17.8137 2.32967C17.8081 2.29064 17.7947 2.25313 17.7744 2.21932C17.7541 2.18552 17.7272 2.1561 17.6954 2.13279C17.6636 2.10948 17.6275 2.09273 17.5891 2.08354C17.5508 2.07435 17.511 2.07289 17.4721 2.07925C17.4331 2.08561 17.3959 2.09966 17.3624 2.12058L15.8781 3.0112C15.8224 3.04467 15.7793 3.09546 15.7552 3.1558C15.7312 3.21614 15.7276 3.28269 15.745 3.34525C15.7625 3.40781 15.7999 3.46294 15.8517 3.50218C15.9034 3.54142 15.9663 3.56261 16.0312 3.5625Z" fill="#B1B1B1"/>
</g>
<defs>
<clipPath id="clip0_432_1521">
<rect width="19" height="19" fill="white"/>
</clipPath>
</defs>
</svg>
