<svg width="20" height="20" viewBox="0 0 20 20" fill="none" xmlns="http://www.w3.org/2000/svg">
<path d="M10 10.4167C12.5313 10.4167 14.5834 8.36464 14.5834 5.83333C14.5834 3.30203 12.5313 1.25 10 1.25C7.46872 1.25 5.41669 3.30203 5.41669 5.83333C5.41669 8.36464 7.46872 10.4167 10 10.4167Z" fill="#B1B1B1"/>
<path fill-rule="evenodd" clip-rule="evenodd" d="M15.4167 11.2547H15.8333C16.1095 11.2551 16.3742 11.365 16.5694 11.5603C16.7647 11.7555 16.8746 12.0202 16.875 12.2964V13.5464C16.875 13.7121 16.9409 13.8711 17.0581 13.9883C17.1753 14.1055 17.3343 14.1714 17.5 14.1714C17.6658 14.1714 17.8247 14.1055 17.942 13.9883C18.0592 13.8711 18.125 13.7121 18.125 13.5464V12.2964C18.1252 11.9877 18.0631 11.6822 17.9424 11.3981C17.8216 11.114 17.6447 10.8573 17.4223 10.6432C17.1999 10.4292 16.9365 10.2623 16.648 10.1526C16.3595 10.0429 16.0518 9.99258 15.7433 10.0047H15.4167C14.809 10.0051 14.2264 10.2467 13.7967 10.6764C13.367 11.1061 13.1255 11.6887 13.125 12.2964V13.5464C13.125 13.7121 13.1909 13.8711 13.3081 13.9883C13.4253 14.1055 13.5843 14.1714 13.75 14.1714C13.9158 14.1714 14.0747 14.1055 14.192 13.9883C14.3092 13.8711 14.375 13.7121 14.375 13.5464V12.2964C14.3759 12.0204 14.4859 11.7559 14.6811 11.5608C14.8762 11.3656 15.1407 11.2556 15.4167 11.2547ZM11.7108 18.343C11.5441 18.0194 11.4575 17.6604 11.4583 17.2964V14.3797C11.4583 13.668 11.7825 13.0322 12.2917 12.6122V12.2964C12.2917 11.9622 12.345 11.633 12.4475 11.3214C11.6377 11.1962 10.8194 11.1338 10 11.1347C7.23168 11.1347 4.78084 11.8272 3.25918 12.8647C2.09834 13.6564 1.45834 14.6622 1.45834 15.718V16.9264C1.45878 17.302 1.60818 17.662 1.87376 17.9276C2.13934 18.1932 2.49942 18.3426 2.87501 18.343H11.7108Z" fill="#B1B1B1"/>
<path fill-rule="evenodd" clip-rule="evenodd" d="M18.9584 17.2969V14.3802C18.9584 13.9934 18.8047 13.6225 18.5312 13.349C18.2577 13.0755 17.8868 12.9219 17.5 12.9219H13.75C13.3632 12.9219 12.9923 13.0755 12.7188 13.349C12.4453 13.6225 12.2917 13.9934 12.2917 14.3802V17.2969C12.2917 18.1027 12.945 18.7552 13.75 18.7552H17.5C17.8868 18.7552 18.2577 18.6016 18.5312 18.3281C18.8047 18.0546 18.9584 17.6837 18.9584 17.2969ZM15 15.4219V16.2552C15 16.421 15.0659 16.5799 15.1831 16.6971C15.3003 16.8144 15.4593 16.8802 15.625 16.8802C15.7908 16.8802 15.9498 16.8144 16.067 16.6971C16.1842 16.5799 16.25 16.421 16.25 16.2552V15.4219C16.25 15.2561 16.1842 15.0971 16.067 14.9799C15.9498 14.8627 15.7908 14.7969 15.625 14.7969C15.4593 14.7969 15.3003 14.8627 15.1831 14.9799C15.0659 15.0971 15 15.2561 15 15.4219Z" fill="#B1B1B1"/>
</svg>
