<svg width="20" height="20" viewBox="0 0 20 20" fill="none" xmlns="http://www.w3.org/2000/svg">
<g clip-path="url(#clip0_432_1507)">
<path d="M17.8418 12.2753L15.6255 15.1735C15.4067 15.4596 15.1249 15.6914 14.802 15.851C14.4791 16.0105 14.1238 16.0935 13.7637 16.0936H9.64844C9.32484 16.0936 9.0625 15.8312 9.0625 15.5076C9.0625 15.184 9.32484 14.9217 9.64844 14.9217H13.2152C13.9818 14.9217 14.6238 14.2943 14.6091 13.5278C14.5949 12.785 13.9884 12.1873 13.2422 12.1873H9.14062C7.96301 11.055 6.14574 10.9225 4.81633 11.8721L4.375 12.1873V18.8279H14.565C15.1537 18.8279 15.7329 18.6801 16.2496 18.398C16.7663 18.1159 17.2039 17.7086 17.5223 17.2134L19.8089 13.6563C19.9337 13.4623 20 13.2365 20 13.0059C20 11.8557 18.5404 11.3616 17.8418 12.2753ZM2.61719 11.0154H0.585938C0.262344 11.0154 0 11.2778 0 11.6014V19.4139C0 19.7375 0.262344 19.9998 0.585938 19.9998H2.61719C2.94078 19.9998 3.20312 19.7375 3.20312 19.4139V11.6014C3.20312 11.2778 2.94078 11.0154 2.61719 11.0154ZM11.184 3.23828C11.0648 3.32969 10.9991 3.46809 10.9765 3.58813C10.9453 3.75371 10.9848 3.90754 11.0771 3.97996C11.1116 4.0067 11.1472 4.03181 11.184 4.0552V3.23828Z" fill="#B1B1B1"/>
<path d="M11.6016 9.76562C14.2939 9.76562 16.4844 7.5752 16.4844 4.88281C16.4844 2.19043 14.2939 0 11.6016 0C8.90918 0 6.71875 2.19043 6.71875 4.88281C6.71875 7.5752 8.90918 9.76562 11.6016 9.76562ZM10.1235 6.47926C10.2415 6.29879 10.4837 6.24801 10.6642 6.36621C10.8752 6.50422 11.0074 6.56406 11.184 6.58887V4.93922C10.9345 4.82488 10.748 4.71484 10.595 4.5948C10.2708 4.34055 10.1228 3.89945 10.2087 3.44355C10.3023 2.94676 10.6481 2.55148 11.1111 2.41203C11.1353 2.40479 11.1596 2.39795 11.184 2.39152V2.14844C11.184 1.93273 11.3589 1.75781 11.5746 1.75781C11.7903 1.75781 11.9652 1.93273 11.9652 2.14844V2.34871C12.3445 2.41438 12.6125 2.60109 12.7424 2.75012C12.8841 2.91277 12.8671 3.15953 12.7044 3.30121C12.5426 3.44215 12.2977 3.42613 12.1555 3.26586C12.1466 3.25684 12.0846 3.19707 11.9652 3.15305V4.41523C12.0346 4.44098 12.1039 4.46594 12.1719 4.49C12.8585 4.73273 13.2404 5.36836 13.1222 6.07168C13.0303 6.61836 12.6143 7.17277 11.9652 7.33742V7.61719C11.9652 7.83289 11.7903 8.00781 11.5746 8.00781C11.3589 8.00781 11.184 7.83289 11.184 7.61719V7.37492C10.8686 7.34766 10.6071 7.26246 10.2365 7.02C10.056 6.90188 10.0054 6.6598 10.1235 6.47926Z" fill="#B1B1B1"/>
<path d="M12.3518 5.94262C12.3774 5.78992 12.3879 5.42605 11.9652 5.24805V6.50277C12.1849 6.37691 12.3162 6.15434 12.3518 5.94262Z" fill="#B1B1B1"/>
</g>
<defs>
<clipPath id="clip0_432_1507">
<rect width="20" height="20" fill="white"/>
</clipPath>
</defs>
</svg>
